<svg xmlns="http://www.w3.org/2000/svg" xml:space="preserve" width="512" height="512"><path d="M0-142.549c78.687 0 142.549 63.862 142.549 142.549 0 78.687-63.862 142.549-142.549 142.549-78.687 0-142.549-63.862-142.549-142.549 0-78.687 63.862-142.549 142.549-142.549z" style="stroke:#8fc8bc;stroke-width:0;stroke-dasharray:none;stroke-linecap:butt;stroke-dashoffset:0;stroke-linejoin:miter;stroke-miterlimit:4;fill:#27272a;fill-rule:nonzero;opacity:1" transform="matrix(1.79588 0 0 1.79588 256 256)"/><path d="M283.11 405.046q-42.24 0-73.536-17.28t-48-48.768q-16.704-31.488-16.704-72.96 0-41.472 16.704-72.768t48-48.576q31.296-17.28 73.536-17.28 26.496 0 51.264 8.064 24.768 8.064 40.512 21.504l-21.888 49.92q-33.408-23.424-68.352-23.424-33.024 0-50.496 20.736t-17.472 61.824q0 41.088 17.472 62.016 17.472 20.928 50.496 20.928 34.944 0 68.352-23.424l21.888 49.92q-15.744 13.44-40.512 21.504-24.768 8.064-51.264 8.064Z" style="stroke:none;stroke-width:1;stroke-dasharray:none;stroke-linecap:butt;stroke-dashoffset:0;stroke-linejoin:miter;stroke-miterlimit:4;fill:#34d399;fill-rule:nonzero;opacity:1" transform="matrix(1.66945 0 0 1.66945 -177.853 -188.457)"/></svg>